<svg height="512pt" viewBox="0 -53 512 512" width="512pt" xmlns="http://www.w3.org/2000/svg"><path d="m281.425781 57.992188c-1.734375 2.171874-4.359375 3.4375-7.140625 3.4375-.613281.007812-1.226562-.054688-1.828125-.183594-3.339843-.660156-6.039062-3.128906-6.996093-6.398438l-8.417969-29.394531-101.613281-25.453125v254.171875c4.195312-.914063 8.402343-1.828125 12.46875-2.632813 3.226562-.660156 6.558593.464844 8.722656 2.945313 2.164062 2.484375 2.828125 5.9375 1.734375 9.042969-1.089844 3.105468-3.769531 5.386718-7.007813 5.96875-5.183594.996094-10.488281 2.128906-15.917968 3.363281v83.15625l20.855468 5.246094 19.371094-14.574219c2.277344-1.710938 5.21875-2.265625 7.960938-1.5 2.742187.769531 4.972656 2.769531 6.027343 5.414062l8.414063 21.027344 138.511718 34.660156v-356.003906l-57.507812-14.398437zm-33.917969 26.753906c13.574219 1.742187 26.542969 6.671875 37.851563 14.378906 4.046875 2.875 5.0625 8.457031 2.28125 12.574219-2.777344 4.113281-8.335937 5.257812-12.515625 2.578125-8.90625-6.09375-19.128906-9.988282-29.832031-11.375-5.011719-.609375-8.582031-5.171875-7.972657-10.183594.613282-5.015625 5.171876-8.585938 10.1875-7.972656zm-68.308593 39.183594c3.003906-9.285157 8.425781-17.601563 15.707031-24.097657 3.613281-3.097656 7.558594-5.789062 11.757812-8.019531 2.890626-1.605469 6.425782-1.523438 9.238282.210938 2.816406 1.738281 4.472656 4.859374 4.335937 8.164062-.136719 3.300781-2.046875 6.273438-4.996093 7.769531-3.019532 1.609375-5.851563 3.542969-8.449219 5.769531-4.824219 4.417969-8.398438 10.03125-10.347657 16.277344-1.285156 3.660156-4.742187 6.113282-8.625 6.113282-1.03125 0-2.058593-.175782-3.035156-.519532-2.289062-.804687-4.160156-2.488281-5.210937-4.675781-1.046875-2.1875-1.179688-4.703125-.375-6.992187zm15.140625 83.394531c-2.300782.765625-4.8125.585937-6.984375-.5-2.167969-1.089844-3.816407-2.996094-4.582031-5.296875-3.59375-10.734375-6.164063-21.785156-7.679688-33.007813-.210938-1.480469-.382812-3.105469-.511719-4.78125-.394531-5.03125 3.363281-9.4375 8.398438-9.832031 5.035156-.394531 9.4375 3.363281 9.832031 8.398438.101562 1.28125.230469 2.542968.402344 3.746093 1.351562 10.101563 3.671875 20.050781 6.921875 29.707031.765625 2.300782.585937 4.816407-.5 6.984376-1.089844 2.167968-2.992188 3.816406-5.296875 4.582031zm19.410156 55.878906c-2.304688.320313-4.578125.625-6.828125.914063-4.75.613281-9.164063-2.542969-10.125-7.234376-.957031-4.6875 1.859375-9.324218 6.46875-10.628906l19.507813-2.960937c5.488281-.96875 11.035156-2.148438 16.457031-3.660157 3.175781-.964843 6.621093-.132812 9.007812 2.167969 2.386719 2.304688 3.339844 5.71875 2.488281 8.925781-.847656 3.207032-3.371093 5.699219-6.585937 6.515626-3.582031 1.007812-7.183594 1.828124-10.777344 2.632812zm67.15625 59.429687c-1.367188 2.003907-3.472656 3.386719-5.855469 3.835938-2.386719.449219-4.851562-.0625-6.855469-1.429688-10.65625-7.472656-20.257812-16.34375-28.542968-26.378906-3.28125-3.84375-2.824219-9.621094 1.019531-12.90625 3.84375-3.28125 9.625-2.824218 12.90625 1.019532 7.234375 8.792968 15.617187 16.570312 24.921875 23.125 4.167969 2.84375 5.246094 8.527343 2.40625 12.699218zm-1.390625-84.644531c-3.746094 3.386719-9.53125 3.097657-12.917969-.648437-3.390625-3.746094-3.097656-9.53125.648438-12.917969 8.269531-7.671875 15.359375-16.527344 21.027344-26.277344 1.625-2.886719 4.6875-4.667969 8-4.65625 3.3125.007813 6.359374 1.8125 7.964843 4.710938 1.605469 2.898437 1.519531 6.4375-.230469 9.253906-6.609374 11.320313-14.863281 21.597656-24.492187 30.5zm44.800781 86.765625c5.625-.074218 11.230469-.6875 16.738282-1.828125 4.945312-1.035156 9.792968 2.132813 10.828124 7.078125 1.035157 4.941406-2.136718 9.789063-7.078124 10.824219-6.660157 1.367187-13.433594 2.105469-20.234376 2.203125h-1.195312c-6.300781-.039062-12.578125-.769531-18.714844-2.183594-3.1875-.71875-5.75-3.085937-6.71875-6.203125-.972656-3.117187-.207031-6.519531 2.011719-8.917969 2.214844-2.402343 5.542969-3.4375 8.726563-2.71875 4.820312 1.121094 9.746093 1.703126 14.695312 1.738282zm-11.722656-195.335937c6.601562 12.675781 8.765625 27.199219 6.152344 41.25-.800782 4.332031-4.574219 7.476562-8.976563 7.480469-.5625 0-1.121093-.046876-1.671875-.144532-4.964844-.925781-8.238281-5.699218-7.316406-10.664062.515625-2.746094.773438-5.539063.777344-8.335938-.039063-7.425781-1.835938-14.734375-5.246094-21.332031-1.679688-2.933594-1.601562-6.554687.199219-9.414063 1.800781-2.859374 5.035156-4.492187 8.40625-4.242187 3.371093.246094 6.332031 2.335937 7.695312 5.429687zm0 0"/><path d="m118.675781 26.6875c-.667969 3.304688-3.09375 5.972656-6.320312 6.949219-.855469.253906-1.746094.375-2.640625.367187-2.425782-.003906-4.75-.964844-6.464844-2.679687l-13.394531-13.394531-89.855469 31.6875v275.878906l22.371094 11.179687c2.839844 1.417969 4.738281 4.203125 5.023437 7.359375.285157 3.15625-1.085937 6.238282-3.625 8.136719l-23.769531 17.832031v35.070313l137.144531-48.402344v-79.351563l-.816406.203126c-.757813.203124-1.539063.304687-2.320313.300781-4.589843-.011719-8.460937-3.429688-9.042968-7.980469-.585938-4.554688 2.296875-8.835938 6.738281-10.003906 1.882813-.492188 3.601563-.914063 5.441406-1.34375v-257.261719l-14.375 5.09375zm-72.722656 210.394531c-1.808594 1.617188-4.1875 2.445313-6.609375 2.308594-2.417969-.136719-4.6875-1.230469-6.300781-3.039063-4.097657-4.570312-8.09375-9.042968-12.078125-13.027343-3.464844-3.589844-3.414063-9.289063.109375-12.816407 3.527343-3.527343 9.230469-3.578124 12.816406-.113281 4.21875 4.214844 8.449219 8.925781 12.800781 13.777344 1.613282 1.8125 2.445313 4.1875 2.304688 6.609375s-1.234375 4.6875-3.042969 6.300781zm51.921875 44.097657c-.425781 0-.851562-.03125-1.273438-.089844l-1.828124-.277344c-13.089844-2.5-25.25-8.523438-35.171876-17.425781-3.878906-3.234375-4.402343-9-1.167968-12.882813 3.234375-3.878906 9-4.402344 12.878906-1.167968 7.429688 6.773437 16.554688 11.414062 26.40625 13.429687l1.445312.210937c4.773438.644532 8.226563 4.882813 7.898438 9.6875-.332031 4.804688-4.335938 8.53125-9.152344 8.515626zm18.285156-131c-3.570312 3.570312-9.359375 3.570312-12.929687 0l-18.457031-18.457032-12.542969 25.222656c-2.257813 4.519532-7.753907 6.355469-12.273438 4.097657-4.515625-2.257813-6.351562-7.75-4.09375-12.269531l15.296875-30.65625-22.765625-22.765626c-2.378906-2.296874-3.332031-5.695312-2.496093-8.890624.839843-3.199219 3.335937-5.695313 6.53125-6.53125 3.195312-.835938 6.597656.117187 8.890624 2.492187l18.460938 18.460937 12.605469-25.226562c1.460937-2.921875 4.371093-4.84375 7.632812-5.042969 3.261719-.195312 6.382813 1.363281 8.183594 4.085938 1.800781 2.726562 2.011719 6.207031.550781 9.132812l-15.339844 30.628907 22.765626 22.765624c1.722656 1.714844 2.6875 4.046876 2.6875 6.476563s-.964844 4.761719-2.6875 6.476563zm0 0"/><path d="m374.855469 49.617188v255.40625c7.527343-6.308594 14.878906-12.800782 21.816406-19.410157 2.359375-2.257812 5.746094-3.085937 8.882813-2.171875 3.136718.914063 5.546874 3.433594 6.320312 6.605469.777344 3.171875-.199219 6.519531-2.558594 8.777344-8.851562 8.46875-18.285156 16.75-27.957031 24.640625-1.625 1.332031-3.660156 2.0625-5.761719 2.058594-.257812 0-.484375-.148438-.742187-.164063v79.722656l67.886719-23.933593 5.347656-37.578126c.515625-3.613281 3.125-6.574218 6.644531-7.535156 3.515625-.960937 7.269531.261719 9.550781 3.109375l21.449219 26.835938 26.265625-9.300781v-355.464844zm47.542969 70.328124c1.457031-1.941406 3.621093-3.222656 6.023437-3.566406 2.398437-.34375 4.839844.28125 6.777344 1.738282 5.296875 3.964843 10.253906 8.363281 14.820312 13.148437 2.253907 2.363281 3.074219 5.75 2.15625 8.886719-.921875 3.132812-3.445312 5.539062-6.621093 6.308594-3.175782.769531-6.519532-.214844-8.773438-2.578126-3.867188-4.054687-8.066406-7.78125-12.550781-11.136718-1.941407-1.457032-3.222657-3.621094-3.566407-6.023438-.34375-2.398437.28125-4.835937 1.734376-6.777344zm36.34375 122.777344c-5.867188 8.375-12.359376 16.03125-18.632813 23.433594-1.828125 2.167969-3.390625 3.96875-4.964844 5.753906-2.121093 2.582032-5.480469 3.804688-8.765625 3.183594-3.285156-.617188-5.96875-2.984375-7-6.164062-1.03125-3.179688-.246094-6.667969 2.050782-9.097657 1.5-1.703125 2.980468-3.417969 4.445312-5.148437 6.316406-7.441406 12.523438-14.773438 17.902344-22.445313 1.871094-2.675781 5.03125-4.152343 8.285156-3.867187s6.113281 2.28125 7.492188 5.242187c1.382812 2.960938 1.078124 6.433594-.792969 9.109375zm16.777343-36.304687c-.867187 4.257812-4.613281 7.316406-8.960937 7.316406-.613282 0-1.226563-.058594-1.828125-.183594-2.378907-.480469-4.464844-1.886719-5.808594-3.910156-1.339844-2.019531-1.824219-4.492187-1.339844-6.871094.652344-3.199219.984375-6.460937.988281-9.726562v-1.589844c-.238281-6.710937-1.554687-13.339844-3.894531-19.632813-1.214843-3.085937-.664062-6.585937 1.441407-9.152343 2.105468-2.5625 5.433593-3.78125 8.695312-3.191407 3.265625.59375 5.953125 2.90625 7.023438 6.046876 3.03125 8.175781 4.722656 16.785156 5.019531 25.5v2.019531c-.003907 4.492187-.449219 8.972656-1.335938 13.375zm0 0"/></svg>